<svg width="22" height="8" viewBox="0 0 22 8" fill="none" xmlns="http://www.w3.org/2000/svg">
<path d="M21.5 3.18198C21.7761 3.18198 22 3.40583 22 3.68198C22 3.95812 21.7761 4.18198 21.5 4.18198V3.68198V3.18198ZM0.146446 4.03553C-0.0488148 3.84027 -0.0488148 3.52369 0.146446 3.32842L3.32843 0.146442C3.52369 -0.0488198 3.84027 -0.0488198 4.03553 0.146442C4.2308 0.341705 4.2308 0.658287 4.03553 0.853549L1.20711 3.68198L4.03553 6.5104C4.2308 6.70567 4.2308 7.02225 4.03553 7.21751C3.84027 7.41277 3.52369 7.41277 3.32843 7.21751L0.146446 4.03553ZM21.5 3.68198V4.18198H0.5V3.68198V3.18198H21.5V3.68198Z" fill="#E798A8"/>
</svg>
